<svg xmlns="http://www.w3.org/2000/svg" width="150" height="150" viewBox="0 0 150 150">
  <defs>
    <linearGradient id="grad3" x1="0%" y1="0%" x2="100%" y2="100%">
      <stop offset="0%" style="stop-color:#7E4E99;stop-opacity:1" />
      <stop offset="100%" style="stop-color:#2E6D4A;stop-opacity:1" />
    </linearGradient>
    <filter id="glow" x="-20%" y="-20%" width="140%" height="140%">
      <feGaussianBlur stdDeviation="3" result="blur" />
      <feComposite in="SourceGraphic" in2="blur" operator="over" />
    </filter>
  </defs>
  <rect x="10" y="10" rx="15" ry="15" width="130" height="130" fill="#1E1E1E" />
  
  <!-- Lightbulb -->
  <circle cx="75" cy="45" r="25" fill="url(#grad3)" filter="url(#glow)" />
  <path d="M75,20 C62,20 52,30 52,43 C52,50 55,55 60,60 L60,70 C60,75 65,75 75,75 C85,75 90,75 90,70 L90,60 C95,55 98,50 98,43 C98,30 88,20 75,20 Z" 
        fill="#FFF7D6" opacity="0.9" />
  <rect x="65" y="75" width="20" height="10" rx="3" ry="3" fill="#B6743C" />
  
  <!-- Insight rays -->
  <line x1="75" y1="10" x2="75" y2="25" style="stroke:#FFF7D6;stroke-width:2" />
  <line x1="55" y1="15" x2="65" y2="28" style="stroke:#FFF7D6;stroke-width:2" />
  <line x1="95" y1="15" x2="85" y2="28" style="stroke:#FFF7D6;stroke-width:2" />
  <line x1="40" y1="30" x2="55" y2="40" style="stroke:#FFF7D6;stroke-width:2" />
  <line x1="110" y1="30" x2="95" y2="40" style="stroke:#FFF7D6;stroke-width:2" />
  
  <!-- Insight blocks -->
  <rect x="35" y="100" width="80" height="10" rx="5" ry="5" fill="#2E6D4A" opacity="0.9" />
  <rect x="45" y="115" width="60" height="10" rx="5" ry="5" fill="#4D8AF0" opacity="0.7" />
  <rect x="55" y="130" width="40" height="6" rx="3" ry="3" fill="#7E4E99" opacity="0.5" />
</svg> 