<svg xmlns="http://www.w3.org/2000/svg" width="150" height="150" viewBox="0 0 150 150">
  <defs>
    <linearGradient id="grad2" x1="0%" y1="0%" x2="100%" y2="100%">
      <stop offset="0%" style="stop-color:#B6743C;stop-opacity:1" />
      <stop offset="100%" style="stop-color:#4D8AF0;stop-opacity:1" />
    </linearGradient>
  </defs>
  <rect x="10" y="10" rx="15" ry="15" width="130" height="130" fill="#1E1E1E" />
  
  <!-- Graph lines -->
  <polyline points="30,120 50,90 70,100 90,70 110,50 130,60" 
            style="fill:none;stroke:url(#grad2);stroke-width:4" />
  
  <!-- Data points -->
  <circle cx="30" cy="120" r="6" fill="#B6743C" />
  <circle cx="50" cy="90" r="6" fill="#B6743C" />
  <circle cx="70" cy="100" r="6" fill="#B6743C" />
  <circle cx="90" cy="70" r="6" fill="#4D8AF0" />
  <circle cx="110" cy="50" r="6" fill="#4D8AF0" />
  <circle cx="130" cy="60" r="6" fill="#4D8AF0" />
  
  <!-- Connecting lines -->
  <line x1="40" y1="40" x2="110" y2="30" style="stroke:#7E4E99;stroke-width:2;stroke-dasharray:3,3" />
  <line x1="50" y1="60" x2="90" y2="40" style="stroke:#7E4E99;stroke-width:2;stroke-dasharray:3,3" />
  
  <!-- Pattern indicators -->
  <circle cx="40" cy="40" r="8" fill="#7E4E99" opacity="0.8" />
  <circle cx="110" cy="30" r="8" fill="#7E4E99" opacity="0.8" />
  <circle cx="50" cy="60" r="5" fill="#7E4E99" opacity="0.6" />
  <circle cx="90" cy="40" r="5" fill="#7E4E99" opacity="0.6" />
</svg> 